<svg id="Layer_1" enable-background="new 0 0 512.036 512.036" height="70" viewBox="0 0 512.036 512.036" width="70" xmlns="http://www.w3.org/2000/svg"><g><path d="m92.745 41.816c94.267-42.374 232.276-42.374 326.543-.001 11.081 4.981 19.836 13.957 24.626 25.122 42.805 99.774 42.804 246.427-.002 346.2-4.789 11.162-13.542 20.137-24.621 25.117-94.268 42.375-232.281 42.375-326.549 0-11.079-4.98-19.832-13.954-24.621-25.117-42.805-99.773-42.805-246.427.001-346.201 4.789-11.164 13.544-20.139 24.623-25.12z" fill="#a0c8ff"/><path d="m321.018 452.036c-3.71 28.139-31.396 50-65 50-33.604 0-61.29-21.861-65-50" fill="#a0c8ff"/><g fill="#9d9ae8"><path d="m353.089 328.964c-3.906-3.905-10.236-3.905-14.143 0l-22.929 22.929-22.929-22.929c-3.906-3.905-10.236-3.905-14.143 0l-22.929 22.929-22.929-22.929c-3.906-3.905-10.236-3.905-14.143 0l-22.929 22.929-22.929-22.929c-3.906-3.905-10.236-3.905-14.143 0l-30 30c-3.905 3.905-3.905 10.237 0 14.143 3.906 3.905 10.236 3.905 14.143 0l22.929-22.929 22.929 22.929c3.906 3.905 10.236 3.905 14.143 0l22.929-22.929 22.929 22.929c3.906 3.905 10.236 3.905 14.143 0l22.929-22.929 22.929 22.929c3.906 3.905 10.236 3.905 14.143 0l22.929-22.929 22.929 22.929c1.953 1.953 4.512 2.929 7.071 2.929s5.118-.976 7.071-2.929c3.905-3.905 3.905-10.237 0-14.143z"/><path d="m453.104 62.995c-5.807-13.536-16.36-24.297-29.716-30.3-96.98-43.593-237.762-43.593-334.742.001-13.354 6.003-23.907 16.763-29.713 30.297-44.013 102.586-44.013 251.502 0 354.087 5.806 13.533 16.356 24.292 29.711 30.295 29.423 13.226 63.019 22.598 99.867 27.888 12.435 21.962 38.177 36.772 67.507 36.772s55.072-14.81 67.507-36.772c36.848-5.29 70.443-14.662 99.868-27.889 13.354-6.003 23.904-16.762 29.71-30.295 44.012-102.583 44.012-251.497.001-354.084zm-18.38 346.199c-3.825 8.915-10.762 15.997-19.531 19.939-25.013 11.243-53.341 19.549-84.348 24.756.026-.183.063-.363.087-.547.722-5.476-3.132-10.5-8.607-11.221-5.479-.721-10.499 3.132-11.221 8.607-3.104 23.549-26.787 41.307-55.086 41.307s-51.981-17.758-55.086-41.307c-.721-5.475-5.743-9.328-11.221-8.607-5.476.722-9.329 5.746-8.607 11.221.024.184.061.364.087.547-31.007-5.207-59.334-13.513-84.347-24.756-8.771-3.943-15.707-11.024-19.532-19.939-20.18-47.037-31.294-107.112-31.294-169.158 0-62.045 11.114-122.121 31.295-169.159 3.824-8.917 10.762-15.998 19.532-19.94 44.331-19.927 100.858-30.902 159.172-30.902 58.313 0 114.841 10.974 159.172 30.901 8.771 3.943 15.709 11.025 19.535 19.944 20.181 47.038 31.294 107.112 31.294 169.158s-11.114 122.12-31.294 169.156z"/><path d="m183.449 138.461c5.333 1.417 10.814-1.758 12.232-7.096 1.419-5.337-1.758-10.814-7.096-12.233-37.312-9.914-77.508 4.336-91.519 32.442-2.463 4.943-.454 10.947 4.489 13.411 1.433.714 2.954 1.053 4.453 1.053 3.673 0 7.208-2.031 8.958-5.541 9.601-19.259 40.957-29.351 68.483-22.036z"/><path d="m133.089 263.107 22.929-22.929 22.929 22.929c1.953 1.953 4.512 2.929 7.071 2.929s5.118-.976 7.071-2.929c3.905-3.905 3.905-10.237 0-14.143l-22.929-22.929 22.929-22.929c3.905-3.905 3.905-10.237 0-14.143-3.906-3.905-10.236-3.905-14.143 0l-22.929 22.929-22.929-22.929c-3.906-3.905-10.236-3.905-14.143 0-3.905 3.905-3.905 10.237 0 14.143l22.929 22.929-22.929 22.929c-3.905 3.905-3.905 10.237 0 14.143 1.953 1.953 4.512 2.929 7.071 2.929s5.12-.976 7.073-2.929z"/><path d="m393.089 188.964c-3.906-3.905-10.236-3.905-14.143 0l-22.929 22.929-22.929-22.929c-3.906-3.905-10.236-3.905-14.143 0-3.905 3.905-3.905 10.237 0 14.143l22.929 22.929-22.929 22.929c-3.905 3.905-3.905 10.237 0 14.143 1.953 1.953 4.512 2.929 7.071 2.929s5.118-.976 7.071-2.929l22.929-22.929 22.929 22.929c1.953 1.953 4.512 2.929 7.071 2.929s5.118-.976 7.071-2.929c3.905-3.905 3.905-10.237 0-14.143l-22.929-22.929 22.929-22.929c3.907-3.905 3.907-10.237.002-14.143z"/><path d="m325.449 119.132c-5.338 1.418-8.515 6.896-7.096 12.233 1.419 5.338 6.9 8.514 12.232 7.096 27.523-7.315 58.883 2.778 68.481 22.036 1.75 3.51 5.285 5.541 8.958 5.541 1.499 0 3.021-.339 4.453-1.053 4.943-2.464 6.952-8.468 4.489-13.411-14.009-28.106-54.21-42.356-91.517-32.442z"/></g></g></svg>