<svg id="Layer_1" enable-background="new 0 0 512.036 512.036" height="70" viewBox="0 0 512.036 512.036" width="70" xmlns="http://www.w3.org/2000/svg"><g><path d="m92.746 41.817c94.267-42.374 232.276-42.374 326.543-.001 11.081 4.981 19.836 13.957 24.626 25.122 42.805 99.774 42.804 246.427-.002 346.2-4.789 11.162-13.542 20.137-24.621 25.117-94.268 42.375-232.281 42.375-326.549 0-11.079-4.98-19.832-13.954-24.621-25.117-42.805-99.774-42.806-246.428 0-346.202 4.79-11.164 13.544-20.139 24.624-25.119z" fill="#fff2a0"/><circle cx="116.018" cy="326.036" fill="#fffbdf" r="30"/><circle cx="396.018" cy="326.036" fill="#fffbdf" r="30"/><path d="m321.018 452.036c-3.71 28.139-31.396 50-65 50-33.604 0-61.29-21.861-65-50" fill="#fff2a0"/><g><path d="m336.018 316.036c0 44.183-35.817 80-80 80s-80-35.817-80-80c44.183-13.333 115.817-13.333 160 0z" fill="#ffbdbc"/><path d="m336.018 316.036c0 13.54-3.37 26.3-9.32 37.48-41.2-9.97-100.16-9.97-141.36 0-5.95-11.18-9.32-23.94-9.32-37.48 44.18-13.33 115.82-13.33 160 0z" fill="#fff"/></g><path d="m156.018 136.036 18.541 39.501 41.459 6.335-30 30.747 7.082 43.417-37.082-20.499-37.082 20.499 7.082-43.417-30-30.747 41.459-6.335z" fill="#fffbdf"/><path d="m356.018 136.036 18.541 39.501 41.459 6.335-30 30.747 7.082 43.417-37.082-20.499-37.082 20.499 7.082-43.417-30-30.747 41.459-6.335z" fill="#fffbdf"/><g fill="#ffa96b"><path d="m453.104 62.996c-5.807-13.536-16.36-24.297-29.716-30.302-96.981-43.592-237.76-43.593-334.743.001-13.354 6.003-23.907 16.764-29.713 30.299-44.012 102.585-44.012 251.5.001 354.086 5.806 13.533 16.357 24.293 29.71 30.296 29.423 13.225 63.017 22.597 99.868 27.889 12.435 21.962 38.177 36.771 67.507 36.771s55.072-14.81 67.507-36.771c36.85-5.292 70.445-14.664 99.868-27.889 13.354-6.003 23.905-16.763 29.71-30.296 44.013-102.584 44.013-251.498.001-354.084zm-18.381 346.199c-3.825 8.915-10.761 15.996-19.531 19.938-25.011 11.243-53.339 19.548-84.347 24.756.026-.183.063-.363.087-.547.722-5.475-3.131-10.499-8.607-11.221-5.474-.718-10.5 3.132-11.221 8.607-3.105 23.549-26.787 41.307-55.086 41.307s-51.981-17.758-55.086-41.307c-.722-5.476-5.75-9.334-11.221-8.607-5.476.722-9.329 5.746-8.607 11.221.024.184.061.364.087.547-31.008-5.208-59.336-13.513-84.347-24.756-8.77-3.942-15.706-11.023-19.531-19.938-20.181-47.038-31.294-107.112-31.295-169.158 0-62.046 11.114-122.12 31.294-169.158 3.826-8.917 10.763-15.999 19.534-19.941 44.331-19.927 100.858-30.901 159.171-30.901s114.841 10.974 159.172 30.9c8.772 3.943 15.71 11.026 19.536 19.944 20.18 47.038 31.294 107.112 31.293 169.157-.001 62.046-11.114 122.12-31.295 169.157z"/><path d="m338.907 306.463c-45.705-13.793-120.073-13.793-165.778 0-4.222 1.273-7.111 5.163-7.111 9.573 0 49.626 40.374 90 90 90s90-40.374 90-90c0-4.41-2.889-8.3-7.111-9.573zm-82.889 79.573c-36.063 0-65.844-27.41-69.6-62.493 40.214-10.074 98.986-10.074 139.2 0-3.756 35.083-33.537 62.493-69.6 62.493z"/><path d="m193.099 266.036c2.024 0 4.041-.613 5.76-1.825 3.131-2.205 4.727-6.005 4.11-9.785l-6.27-38.435 26.476-27.136c2.617-2.683 3.515-6.604 2.325-10.158s-4.268-6.145-7.973-6.711l-36.184-5.527-16.274-34.672c-1.647-3.51-5.175-5.751-9.052-5.751s-7.405 2.241-9.052 5.751l-16.274 34.672-36.184 5.527c-3.705.566-6.783 3.157-7.973 6.711-1.189 3.555-.292 7.476 2.325 10.158l26.476 27.136-6.27 38.435c-.617 3.78.979 7.58 4.11 9.785 3.13 2.206 7.245 2.431 10.597.577l32.244-17.824 32.244 17.824c1.513.835 3.178 1.248 4.839 1.248zm-32.243-39.25c-1.505-.832-3.171-1.248-4.838-1.248s-3.333.416-4.838 1.248l-19.059 10.535 3.767-23.091c.511-3.133-.496-6.322-2.712-8.594l-16.409-16.818 22.221-3.395c3.296-.504 6.125-2.618 7.542-5.637l9.489-20.216 9.489 20.216c1.417 3.019 4.246 5.133 7.542 5.637l22.221 3.395-16.409 16.818c-2.216 2.271-3.223 5.461-2.712 8.594l3.767 23.091z"/><path d="m417.528 171.986-36.184-5.527-16.274-34.672c-1.647-3.51-5.175-5.751-9.052-5.751s-7.405 2.241-9.052 5.751l-16.274 34.672-36.184 5.527c-3.705.566-6.783 3.157-7.973 6.711-1.189 3.555-.292 7.476 2.325 10.158l26.476 27.136-6.27 38.435c-.617 3.78.979 7.58 4.11 9.785 3.13 2.206 7.245 2.431 10.597.577l32.244-17.824 32.244 17.824c1.511.835 3.176 1.248 4.837 1.248 2.024 0 4.041-.613 5.76-1.825 3.131-2.205 4.727-6.005 4.11-9.785l-6.27-38.435 26.476-27.136c2.617-2.683 3.515-6.604 2.325-10.158-1.188-3.554-4.266-6.145-7.971-6.711zm-38.668 33.65c-2.216 2.271-3.223 5.461-2.712 8.594l3.767 23.091-19.059-10.535c-1.505-.832-3.171-1.248-4.838-1.248s-3.333.416-4.838 1.248l-19.059 10.535 3.767-23.091c.511-3.133-.496-6.322-2.712-8.594l-16.409-16.818 22.221-3.395c3.296-.504 6.125-2.618 7.542-5.637l9.489-20.216 9.489 20.216c1.417 3.019 4.246 5.133 7.542 5.637l22.221 3.395z"/></g></g></svg>