<svg id="Layer_1" enable-background="new 0 0 512.036 512.036" height="70" viewBox="0 0 512.036 512.036" width="70" xmlns="http://www.w3.org/2000/svg"><g><path d="m92.746 41.817c94.267-42.374 232.276-42.374 326.543-.001 11.081 4.981 19.836 13.957 24.626 25.122 42.805 99.774 42.804 246.427-.002 346.2-4.789 11.162-13.542 20.137-24.621 25.117-94.268 42.375-232.281 42.375-326.549 0-11.079-4.98-19.832-13.954-24.621-25.117-42.805-99.774-42.806-246.428 0-346.202 4.79-11.164 13.544-20.139 24.624-25.119z" fill="#99ebfa"/><path d="m336.018 386.036c-44.183-13.333-115.817-13.333-160 0 0-44.183 35.817-80 80-80s80 35.817 80 80z" fill="#ffbdbc"/><path d="m323.278 342.716c-39.84-8.9-94.68-8.9-134.52 0 14.24-22.07 39.04-36.68 67.26-36.68s53.02 14.61 67.26 36.68z" fill="#fff"/><path d="m321.018 452.036c-3.71 28.139-31.396 50-65 50-33.604 0-61.29-21.861-65-50" fill="#99ebfa"/><path d="m495.805 398.249c-8.284-8.285-21.716-8.285-30 0l-3.787 3.787v-59.912c0-11.046-8.954-20-20-20s-20 8.954-20 20v-.088c0-11.046-8.954-20-20-20s-20 8.954-20 20c0-11.046-8.954-20-20-20s-20 8.954-20 20c0-11.046-8.954-20-20-20s-20 8.954-20 20v160h120l73.787-73.787c8.284-8.284 8.284-21.716 0-30z" fill="#fff"/><path d="m16.231 398.249c8.284-8.285 21.716-8.285 30 0l3.787 3.787v-59.912c0-11.046 8.954-20 20-20s20 8.954 20 20v-.088c0-11.046 8.954-20 20-20s20 8.954 20 20c0-11.046 8.954-20 20-20s20 8.954 20 20c0-11.046 8.954-20 20-20s20 8.954 20 20v160h-120l-73.787-73.787c-8.284-8.284-8.284-21.716 0-30z" fill="#fff"/><g><circle cx="156.018" cy="236.036" fill="#ccf5fc" r="40"/><circle cx="356.018" cy="236.036" fill="#ccf5fc" r="40"/><g fill="#80b6ff"><path d="m502.876 391.177c-8.339-8.339-20.262-10.961-30.858-7.871v-24.654c.372-.715.673-1.48.869-2.301 22.993-96.604 15.228-211.753-19.782-293.355-5.807-13.536-16.36-24.297-29.716-30.302-96.98-43.592-237.76-43.593-334.743.001-13.354 6.003-23.907 16.764-29.713 30.299-35.331 82.352-42.902 198.305-19.29 295.405.099.409.231.801.376 1.185v23.722c-10.595-3.09-22.518-.468-30.857 7.872-5.896 5.896-9.143 13.733-9.143 22.071s3.247 16.176 9.142 22.071l73.787 73.787c1.875 1.875 4.419 2.929 7.071 2.929h120c4.88 0 8.938-3.498 9.818-8.123 11.005 5.295 23.422 8.123 36.182 8.123s25.177-2.827 36.182-8.123c.879 4.625 4.937 8.123 9.818 8.123h120c2.652 0 5.196-1.054 7.071-2.929l73.786-73.787c5.896-5.896 9.143-13.733 9.143-22.071s-3.248-16.176-9.143-22.072zm-425.564-320.298c3.826-8.917 10.763-15.999 19.534-19.941 44.331-19.927 100.858-30.901 159.171-30.901s114.841 10.974 159.172 30.9c8.772 3.943 15.71 11.026 19.536 19.944 29.469 68.688 38.65 162.495 25.296 247.261-5.018-3.776-11.253-6.018-18.002-6.018-7.654 0-14.644 2.885-19.949 7.62-5.318-4.788-12.349-7.708-20.051-7.708-7.678 0-14.688 2.902-20 7.664-5.312-4.761-12.322-7.664-20-7.664s-14.688 2.902-20 7.664c-5.312-4.761-12.322-7.664-20-7.664-4.106 0-8.021.831-11.588 2.331-15.597-11.845-34.715-18.331-54.412-18.331-19.641 0-38.837 6.495-54.419 18.328-3.565-1.498-7.478-2.328-11.581-2.328-7.678 0-14.688 2.902-20 7.664-5.312-4.761-12.322-7.664-20-7.664s-14.688 2.902-20 7.664c-5.312-4.761-12.322-7.664-20-7.664-7.702 0-14.733 2.92-20.051 7.708-5.306-4.735-12.296-7.62-19.949-7.62-6.758 0-12.999 2.248-18.02 6.032-13.384-84.774-4.222-178.435 25.313-247.277zm139.3 257.298c11.554-7.865 25.334-12.142 39.406-12.142 14.113 0 27.84 4.283 39.398 12.156-2.166 4.145-3.398 8.852-3.398 13.844v25.729c-23.314-2.276-48.686-2.276-72 0v-25.729c0-4.997-1.235-9.709-3.406-13.858zm-156.592 73.859v-59.912c0-5.514 4.486-10 10-10s10 4.486 10 10v18.885 31.027c0 5.522 4.477 10 10 10s10-4.478 10-10v-31.027-18.885-.088c0-5.514 4.486-10 10-10s10 4.486 10 10v50c0 5.522 4.477 10 10 10s10-4.478 10-10v-50c0-5.514 4.486-10 10-10s10 4.486 10 10v50c0 5.522 4.477 10 10 10s10-4.478 10-10v-50c0-5.514 4.486-10 10-10s10 4.486 10 10v150h-.002-105.858l-70.858-70.858c-2.118-2.118-3.284-4.934-3.284-7.929s1.167-5.811 3.285-7.929c4.372-4.371 11.486-4.372 15.857-.001l3.786 3.787h.001c3.127 3.413 8.087 4.303 11.949 2.26 3.321-1.757 5.332-5.418 5.124-9.33zm159.998 78.827v-92.998c23.225-2.419 48.775-2.419 72 0v92.998c-10.043 7.218-22.731 11.173-36 11.173s-25.957-3.955-36-11.173zm249.073-71.757 3.787-3.786c4.373-4.371 11.486-4.371 15.858 0 2.118 2.118 3.284 4.934 3.284 7.929s-1.169 5.81-3.287 7.928l-70.857 70.858h-105.858v-150c0-5.514 4.486-10 10-10s10 4.486 10 10v50c0 5.522 4.477 10 10 10s10-4.478 10-10v-50c0-5.514 4.486-10 10-10s10 4.486 10 10v50c0 5.522 4.477 10 10 10s10-4.478 10-10v-50c0-5.514 4.486-10 10-10s10 4.486 10 10v.088 18.885 31.027c0 5.522 4.477 10 10 10s10-4.478 10-10v-31.027-18.885c0-5.514 4.486-10 10-10s10 4.486 10 10v59.912c-.179 4.006 2.03 7.726 5.567 9.404 3.847 1.824 8.542.891 11.506-2.333z"/><path d="m124.775 275.031c-1.525.863-3.005 1.787-4.435 2.773-4.546 3.136-5.69 9.363-2.554 13.909 3.136 4.547 9.365 5.689 13.91 2.554 15.895-10.963 42.75-10.963 58.645 0 1.733 1.196 3.711 1.77 5.669 1.77 3.177 0 6.3-1.511 8.241-4.323 3.136-4.546 1.992-10.773-2.554-13.909-3.366-2.322-7.019-4.292-10.865-5.929 9.357-9.091 15.187-21.794 15.187-35.84 0-27.57-22.43-50-50-50s-50 22.43-50 50c-.001 15.756 7.332 29.824 18.756 38.995zm31.243-68.995c16.542 0 30 13.458 30 30s-13.458 30-30 30-30-13.458-30-30 13.458-30 30-30z"/><path d="m307.786 291.714c3.136 4.547 9.365 5.689 13.91 2.554 15.895-10.963 42.75-10.963 58.645 0 1.733 1.196 3.711 1.77 5.669 1.77 3.177 0 6.3-1.511 8.241-4.323 3.136-4.546 1.992-10.773-2.554-13.909-1.43-.986-2.91-1.91-4.435-2.773 11.424-9.171 18.757-23.239 18.757-38.996 0-27.57-22.43-50-50-50s-50 22.43-50 50c0 14.046 5.83 26.749 15.187 35.84-3.846 1.637-7.499 3.607-10.865 5.929-4.547 3.134-5.691 9.362-2.555 13.908zm48.232-85.678c16.542 0 30 13.458 30 30s-13.458 30-30 30-30-13.458-30-30 13.458-30 30-30z"/><path d="m336.018 156.036c5.523 0 10-4.478 10-10v-80c0-5.522-4.477-10-10-10s-10 4.478-10 10v80c0 5.522 4.477 10 10 10z"/><path d="m376.018 166.036c5.523 0 10-4.478 10-10v-80c0-5.522-4.477-10-10-10s-10 4.478-10 10v80c0 5.522 4.477 10 10 10z"/><path d="m416.018 176.036c5.523 0 10-4.478 10-10v-80c0-5.522-4.477-10-10-10s-10 4.478-10 10v80c0 5.522 4.477 10 10 10z"/></g></g></g></svg>